<?xml version="1.0" encoding="UTF-8"?>
<svg id="_レイヤー_1" data-name="レイヤー_1" xmlns="http://www.w3.org/2000/svg" version="1.1" viewBox="0 0 1024 1024">
  <!-- Generator: Adobe Illustrator 30.4.0, SVG Export Plug-In . SVG Version: 2.1.3 Build 159)  -->
  <path d="M331.934,199.572c.935-77.639.935-107.572,64.543-107.572,38.352,0,59.866,18.709,59.866,57.995,0,11.225-1.871,34.61-1.871,47.706,74.832-.935,150.601-2.806,225.434-6.548,38.352-1.871,119.733-7.483,154.344-7.483,39.286,0,62.673,16.838,62.673,57.995,0,30.868-14.032,50.513-44.9,55.189-20.579,2.806-187.083,10.29-217.952,11.225-61.737,1.872-123.474,2.806-185.211,3.742-.936,22.45-.936,44.9-1.871,67.35,40.223-6.548,82.316-10.29,123.474-10.29,89.801,0,174.923,15.902,249.755,70.156,70.156,51.447,101.96,129.086,101.96,214.209,0,105.702-46.77,188.953-142.182,235.724-52.384,26.192-130.958,43.029-189.889,43.029-40.222,0-67.35-14.967-67.35-58.931,0-48.642,31.804-51.448,63.609-54.254,110.377-7.484,211.403-42.094,211.403-171.181,0-93.541-54.254-140.312-139.377-163.697-36.48,92.606-101.024,203.919-167.439,277.817,8.419,14.967,15.902,29.933,15.902,47.706,0,32.739-31.804,58.931-63.608,58.931-18.708,0-29.933-6.548-41.158-21.515-41.158,32.739-91.671,57.996-144.989,57.996-103.831,0-155.279-92.606-155.279-185.211,0-141.247,101.025-250.69,224.499-304.009.936-33.674.936-68.285,1.871-101.959-27.127.935-139.376,1.87-158.084,0-12.16-.936-21.515-3.742-30.868-12.16-12.16-11.225-16.838-28.999-16.838-44.9,0-55.189,42.094-56.124,81.38-57.06h128.152ZM325.386,532.579c-65.479,43.965-112.249,101.96-112.249,185.211,0,35.547,14.967,78.575,57.995,78.575,29.933,0,64.543-28.062,86.058-47.706-21.515-71.091-28.998-142.182-31.804-216.08ZM545.207,468.036c-39.287.936-62.673,2.806-101.024,12.16-.936,14.031-.936,28.062-.936,42.094,0,39.287,2.806,77.639,8.419,115.991,41.158-55.189,68.285-107.572,93.541-170.245Z"/>
</svg>