<?xml version="1.0" encoding="UTF-8"?>
<svg id="_レイヤー_1" data-name="レイヤー_1" xmlns="http://www.w3.org/2000/svg" version="1.1" viewBox="0 0 1024 1024">
  <!-- Generator: Adobe Illustrator 30.4.0, SVG Export Plug-In . SVG Version: 2.1.3 Build 159)  -->
  <path d="M397.667,932c-31.733,0-52.267-2.8-69.067-19.601-13.067-13.066-22.4-33.599-22.4-56.933,0-61.6,45.734-64.399,74.667-65.333,111.067-5.6,218.4-8.4,294-68.133,58.8-46.666,68.133-109.199,68.133-136.266,0-40.134-17.733-75.6-40.134-93.334-29.867-23.333-71.866-28-104.533-28-27.999,0-140.933,7.467-270.666,71.867-14.933,7.467-77.467,41.067-91.467,46.667-19.6,7.466-29.867,8.4-37.333,8.4-56,0-77.467-54.133-77.467-84,0-47.6,29.867-62.533,136.267-106.4,114.8-46.667,267.866-72.8,338.8-72.8,61.6,0,162.4,12.133,224.934,65.333,69.999,60.667,81.199,146.533,81.199,189.467,0,307.999-334.133,349.066-504.933,349.066ZM315.534,92c14.933,0,77.467,13.067,90.533,14.933,55.067,9.333,172.667,21.467,294.934,28,41.066,1.867,98,4.667,98,72.8,0,24.267-10.266,51.334-25.199,63.467-14.001,11.2-31.734,13.067-54.133,13.067-61.601,0-314.534-26.133-415.333-49.467-40.134-9.333-60.667-35.467-56-75.6,6.534-51.334,34.533-67.2,67.2-67.2Z"/>
</svg>