<?xml version="1.0" encoding="UTF-8"?>
<svg id="_レイヤー_1" data-name="レイヤー_1" xmlns="http://www.w3.org/2000/svg" version="1.1" viewBox="0 0 1024 1024">
  <!-- Generator: Adobe Illustrator 30.4.0, SVG Export Plug-In . SVG Version: 2.1.3 Build 159)  -->
  <path d="M256.762,185.81c0,11.428-5.714,64.762-6.667,75.238-2.857,34.285-8.571,112.381-8.571,182.858,0,136.19,20,226.666,41.904,263.809,7.619,12.381,22.857,25.715,44.762,25.715,41.905,0,67.619-43.81,85.714-100,16.19-52.381,22.857-73.333,68.571-73.333,43.81,0,80.953,24.761,80.953,69.524,0,63.809-49.525,152.381-77.144,188.571-20,25.714-70.476,90.476-165.714,90.476-228.572,0-228.572-385.714-228.572-497.143,0-50.476,3.81-208.571,14.286-244.762,13.333-48.571,45.714-51.428,81.905-51.428,68.571,0,68.571,57.143,68.571,70.476ZM770.096,753.429c0-182.857,0-398.095-104.762-433.334-9.524-2.857-54.286-9.524-63.809-11.428-21.905-5.714-44.762-20-44.762-69.524,0-36.19,15.237-76.191,78.095-76.191,50.476,0,160,21.904,220.952,121.905,60.952,100,76.191,302.857,76.191,461.904,0,35.239-2.857,95.238-79.999,95.238-81.905,0-81.905-55.238-81.905-88.572Z"/>
</svg>