<?xml version="1.0" encoding="UTF-8"?>
<svg id="_レイヤー_1" data-name="レイヤー_1" xmlns="http://www.w3.org/2000/svg" version="1.1" viewBox="0 0 1024 1024">
  <!-- Generator: Adobe Illustrator 30.4.0, SVG Export Plug-In . SVG Version: 2.1.3 Build 159)  -->
  <path d="M531.371,588.063c53.858,0,79.369,45.354,79.369,94.488,0,20.787-3.78,42.52-6.613,64.251-.945,6.614-.945,13.229-.945,19.843,0,22.677,2.835,48.189,20.787,64.252,21.732,20.787,72.756,20.787,102.047,20.787,38.74,0,77.481-1.89,116.221-3.78,14.173-.945,29.291-2.835,43.464-2.835,24.567,0,37.796,16.063,37.796,40.63,0,20.787-10.394,34.96-30.236,38.74-32.127,5.669-46.3,7.558-151.181,7.558-100.158,0-218.268-2.835-218.268-134.173,0-20.788,2.835-41.576,4.724-61.418.945-10.394,1.89-20.787,1.89-31.181,0-29.291-17.953-52.913-48.189-52.913-60.472,0-146.457,89.763-200.315,145.512-24.567,25.511-87.874,94.487-112.441,111.496-6.614,4.724-16.063,6.614-24.567,6.614-24.567,0-44.41-22.678-44.41-46.3,0-14.173,7.559-24.567,17.953-34.961,34.016-32.126,70.866-63.307,106.772-94.487,46.299-40.63,91.653-81.261,137.952-121.89,83.15-73.701,171.968-138.898,259.843-205.039,14.173-10.394,38.74-30.236,38.74-34.016,0-2.835-7.558-2.835-9.448-2.835-5.67,0-11.339,0-17.954.945-13.228,1.889-26.456,2.835-39.685,3.779-83.149,6.614-167.243,16.063-250.393,19.843-46.3,1.889-93.543,4.724-139.843,4.724-29.291,0-48.189-8.504-48.189-40.629,0-33.071,22.677-38.741,50.079-38.741h53.858c122.835,0,246.614-7.558,368.505-17.953,30.235-2.835,60.471-5.669,91.653-5.669,32.126,0,64.252,10.394,64.252,49.134,0,33.071-28.347,52.914-63.307,76.536-76.536,51.969-150.237,107.716-221.103,166.299,17.953-5.669,23.622-6.614,31.181-6.614ZM313.102,92c24.567,0,61.418,12.284,85.984,17.953,103.937,24.567,211.654,27.402,318.426,34.016,21.732.945,35.905,13.228,35.905,35.905,0,34.015-23.622,40.63-51.969,40.63-48.189,0-96.378-4.724-143.622-9.449-71.811-6.614-144.567-17.008-215.433-32.126-44.41-9.448-68.032-15.118-68.032-46.299,0-22.677,15.118-40.63,38.74-40.63Z"/>
</svg>