<?xml version="1.0" encoding="UTF-8"?>
<svg id="_レイヤー_1" data-name="レイヤー_1" xmlns="http://www.w3.org/2000/svg" version="1.1" viewBox="0 0 1024 1024">
  <!-- Generator: Adobe Illustrator 30.4.0, SVG Export Plug-In . SVG Version: 2.1.3 Build 159)  -->
  <path d="M827.704,791.061c-53.557,62.013-147.517,101.476-226.442,118.39-70.47,15.972-143.759,22.55-216.108,22.55-20.671,0-42.282-2.819-58.255-15.974-13.154-11.275-18.792-30.067-18.792-47.919,0-53.557,38.524-55.436,99.597-56.376,89.262-.94,184.161-15.034,262.148-62.013,59.194-35.706,97.718-93.96,97.718-164.43,0-105.235-77.987-143.758-172.885-143.758-56.376,0-129.665,17.852-183.221,33.826-51.678,15.974-98.658,38.523-146.577,64.832-32.886,17.852-55.436,29.128-77.987,29.128-37.584,0-62.953-33.826-62.953-69.53,0-37.584,29.128-51.678,58.255-65.772,126.846-60.134,283.758-104.296,424.698-104.296,89.261,0,176.644,21.611,235.838,92.081,36.645,42.282,57.316,103.355,57.316,159.732,0,74.228-23.49,152.214-72.349,209.53ZM307.168,92c15.034,0,34.765,4.698,49.799,8.456,116.51,23.49,242.416,32.886,360.805,40.403,25.369,1.879,74.228,4.698,74.228,61.074,0,18.792-8.456,42.282-24.43,53.557-12.215,8.456-27.248,9.396-41.342,9.396-80.805,0-312.886-29.128-395.571-46.041-35.705-6.577-78.926-14.094-78.926-60.134,0-34.765,16.913-66.711,55.436-66.711Z"/>
</svg>