<?xml version="1.0" encoding="UTF-8"?>
<svg id="_レイヤー_1" data-name="レイヤー_1" xmlns="http://www.w3.org/2000/svg" version="1.1" viewBox="0 0 1024 1024">
  <!-- Generator: Adobe Illustrator 30.4.0, SVG Export Plug-In . SVG Version: 2.1.3 Build 159)  -->
  <path d="M450.9,429.732c38.489-7.697,77.939-9.622,117.388-9.622,177.045,0,334.845,56.77,334.845,261.719,0,116.426-69.278,193.402-178.007,228.04-57.732,17.32-118.351,22.131-186.666,22.131-32.715,0-72.165-1.924-72.165-44.26,0-25.98,19.244-36.565,43.299-36.565,15.395,0,30.79.963,46.186.963,118.351,0,256.908-29.828,256.908-176.083,0-154.913-123.162-181.856-251.134-181.856-37.526,0-74.09,3.849-110.654,11.547v152.989c0,116.426-7.697,272.303-162.612,272.303-109.691,0-194.364-95.258-194.364-202.063,0-156.838,142.406-235.738,273.265-279.037v-132.784c-43.299.963-87.56,1.924-130.859,1.924-22.131,0-106.804,0-117.388-4.81-12.509-5.773-17.32-21.168-17.32-34.639,0-29.828,18.282-40.413,45.224-40.413,25.979,0,52.921.963,78.901.963,47.148,0,94.296,0,141.443-1.925v-101.993c0-29.828,12.509-44.261,43.299-44.261,28.866,0,40.412,16.358,40.412,44.261v98.145c46.186-1.925,93.334-5.774,139.519-5.774,25.98,0,43.299,11.547,43.299,39.451,0,15.395-6.736,32.714-23.092,37.526-20.207,5.773-129.898,6.736-159.726,7.697v116.426ZM368.151,528.838c-88.522,31.753-192.44,88.522-192.44,195.327,0,61.581,45.224,126.048,111.615,126.048,77.938,0,80.824-114.502,80.824-180.893v-140.482ZM685.677,137.224c60.618,0,244.399,155.876,244.399,218.419,0,24.056-24.056,42.338-47.148,42.338-19.244,0-29.828-12.509-39.45-26.942-20.207-31.752-44.262-61.581-71.203-87.56-29.828-28.866-63.505-50.035-99.107-71.203-11.546-6.736-27.904-21.168-27.904-35.601,0-21.168,19.244-39.45,40.413-39.45Z"/>
</svg>