<?xml version="1.0" encoding="UTF-8"?>
<svg id="_レイヤー_1" data-name="レイヤー_1" xmlns="http://www.w3.org/2000/svg" version="1.1" viewBox="0 0 1024 1024">
  <!-- Generator: Adobe Illustrator 30.4.0, SVG Export Plug-In . SVG Version: 2.1.3 Build 159)  -->
  <path d="M200.717,329.876c-25.088,0-78.982,0-78.982-69.69,0-60.398,44.602-67.832,76.195-68.761,19.513,0,104.071.929,121.726.929.93-36.239,1.859-49.248,6.505-63.186,4.646-15.796,20.442-37.168,64.115-37.168,80.84,0,78.053,46.46,76.194,98.496,117.079-2.788,150.531-3.717,212.788-7.434,19.514-.929,123.585-6.504,144.955-6.504,17.655,0,74.336,0,74.336,68.761,0,35.31-15.796,61.328-52.964,66.903-54.822,7.434-311.283,13.009-386.548,14.867-.929,27.877-.929,36.239-1.858,48.319,15.796-1.858,55.752-7.434,107.787-7.434,144.027,0,211.859,36.239,255.532,68.761,89.203,67.832,104.071,156.107,104.071,217.434,0,242.523-232.301,277.832-323.363,277.832-59.469,0-74.335-35.31-74.335-68.761,0-58.541,34.38-61.328,75.265-65.044,93.849-7.434,172.832-39.027,172.832-150.532,0-54.822-19.514-83.628-35.31-100.354-26.017-27.877-53.894-36.239-73.408-41.814-39.026,96.638-102.212,197.921-157.964,257.39,4.646,8.363,12.08,23.23,12.08,41.813,0,33.452-31.593,71.549-75.265,71.549-26.018,0-37.168-11.15-44.602-19.513-20.442,13.938-71.549,48.319-137.522,48.319-100.354,0-163.54-81.77-163.54-191.416,0-151.46,105-247.168,214.646-298.274,0-13.008.929-73.407.929-85.486h-114.292ZM314.08,555.672c-82.699,61.328-82.699,137.522-82.699,153.319,0,10.221,0,66.902,49.247,66.902,18.584,0,45.531-14.867,65.045-29.734-19.513-64.115-28.805-137.522-31.593-190.487ZM533.371,485.053c-31.592,0-48.318.93-78.982,8.363-1.859,52.964,1.858,91.063,6.504,129.16,30.663-41.814,50.177-82.699,72.478-137.522Z"/>
</svg>