<?xml version="1.0" encoding="UTF-8"?>
<svg id="_レイヤー_1" data-name="レイヤー_1" xmlns="http://www.w3.org/2000/svg" version="1.1" viewBox="0 0 1024 1024">
  <!-- Generator: Adobe Illustrator 30.4.0, SVG Export Plug-In . SVG Version: 2.1.3 Build 159)  -->
  <path d="M575.326,580.914c31.663,0,78.226,21.418,78.226,87.538,0,11.175-5.589,59.601-5.589,69.845,0,43.769,14.9,56.807,85.677,56.807,20.488,0,110.819-6.519,124.789-6.519,20.488,0,71.707,0,71.707,67.05,0,73.571-51.22,76.364-178.803,76.364-106.165,0-236.541,0-236.541-129.446,0-9.313,2.794-52.15,2.794-60.532,0-14.9,0-52.15-41.907-52.15-51.219,0-87.539,38.182-215.121,171.352-50.288,52.151-66.12,56.807-90.332,56.807-45.632,0-76.364-45.631-76.364-78.225,0-29.8,14.9-46.564,38.182-66.12,113.614-91.265,117.339-94.058,187.184-153.659,65.188-54.944,81.951-67.982,151.796-121.064,14.9-12.106,66.12-55.876,76.363-64.257-10.243,0-54.013,4.656-63.326,5.587-20.488,1.862-186.253,15.831-252.373,15.831-24.213,0-72.638-2.794-72.638-68.914,0-69.844,54.013-69.844,89.401-69.844,128.514,0,161.109,0,296.142-7.451,27.007-1.862,156.453-12.106,169.49-12.106,22.351,0,79.158,0,79.158,67.983,0,38.182-17.694,55.876-69.845,88.47-64.257,40.045-93.127,63.326-176.009,130.377,6.519-.931,19.557-3.724,27.938-3.724ZM321.091,92c18.626,0,101.508,15.831,119.202,18.626,81.02,12.106,163.902,16.762,245.854,19.557,38.182,1.862,83.814,3.725,83.814,62.395,0,68.913-54.013,68.913-81.02,68.913-57.739,0-270.067-12.106-378.093-35.388-16.763-3.725-55.876-13.038-55.876-62.395,0-5.587,0-11.175.931-16.763,9.313-54.944,48.426-54.944,65.188-54.944Z"/>
</svg>