<?xml version="1.0" encoding="UTF-8"?>
<svg id="_レイヤー_1" data-name="レイヤー_1" xmlns="http://www.w3.org/2000/svg" version="1.1" viewBox="0 0 1024 1024">
  <!-- Generator: Adobe Illustrator 30.4.0, SVG Export Plug-In . SVG Version: 2.1.3 Build 159)  -->
  <path d="M353.732,129.795c1.89-24.567,13.229-37.795,43.465-37.795,25.512,0,40.63,15.118,40.63,40.63s-1.89,51.024-2.835,76.535c82.204-.945,164.409-2.835,246.614-6.614,55.747-2.835,113.385-7.56,170.079-7.56,25.511,0,41.575,12.284,41.575,39.685,0,18.898-10.394,34.961-30.236,36.851-33.071,4.724-205.039,10.394-248.504,11.338-61.418,1.89-121.89,2.835-182.362,4.724-.945,33.071-1.89,66.142-2.835,98.268,45.354-10.393,92.599-16.063,139.843-16.063,177.638,0,349.606,79.37,349.606,280.631,0,109.606-55.747,195.59-155.905,240.945-51.969,23.622-137.008,40.629-194.645,40.629-29.292,0-52.914-8.504-52.914-42.519,0-31.181,19.842-36.851,47.244-37.796,131.339-4.724,270.237-48.189,270.237-205.039,0-117.165-80.316-175.748-186.143-197.481-38.74,97.323-116.22,230.552-182.362,311.811,7.559,17.007,21.733,34.961,21.733,54.803,0,22.677-22.677,40.63-45.354,40.63-17.953,0-28.346-15.119-36.851-29.292-42.519,40.63-94.488,76.536-154.96,76.536-95.433,0-143.622-91.654-143.622-175.748,0-146.457,113.386-261.732,240.945-314.646.945-41.575,1.889-83.149,2.835-124.724-57.638,0-114.331.945-171.969.945-29.291,0-52.913-3.78-52.913-39.685,0-12.284,4.724-25.512,16.063-33.071,7.559-4.724,17.953-5.669,27.402-5.669h183.307c.945-34.016.945-59.528,2.835-81.26ZM344.284,529.481c0-12.284,0-24.567.945-36.851-87.874,48.189-161.575,131.338-161.575,236.221,0,43.464,19.843,100.158,71.811,100.158,48.189,0,88.819-43.465,118.11-76.536-19.843-72.756-29.291-148.347-29.291-222.992ZM565.386,439.716c-47.244,0-92.598,5.669-137.952,18.898,0,22.678-.945,44.409-.945,67.087,0,48.189,1.89,96.378,10.394,143.622,51.024-70.866,96.378-148.347,128.503-229.606Z"/>
</svg>