<?xml version="1.0" encoding="UTF-8"?>
<svg id="_レイヤー_1" data-name="レイヤー_1" xmlns="http://www.w3.org/2000/svg" version="1.1" viewBox="0 0 1024 1024">
  <!-- Generator: Adobe Illustrator 30.4.0, SVG Export Plug-In . SVG Version: 2.1.3 Build 159)  -->
  <path d="M196.149,156.242c0,12.654-1.947,26.28-3.894,39.907-8.76,78.842-13.627,157.682-13.627,237.497,0,96.361,4.867,253.07,56.454,335.805,15.574,25.307,45.747,43.801,75.921,43.801,74.948,0,114.855-100.255,133.348-159.629,10.707-33.093,17.52-50.614,44.774-50.614,23.36,0,45.747,14.601,45.747,39.908,0,33.093-25.307,80.788-38.934,110.961-37.96,78.842-94.415,154.762-190.776,154.762-92.468,0-147.949-79.814-175.203-159.629-33.094-95.388-37.961-213.163-37.961-314.391,0-48.667,6.814-250.15,16.547-288.11,5.84-20.44,20.44-31.147,41.854-31.147,25.307,0,45.748,13.627,45.748,40.881ZM884.306,838.559c-33.095,0-46.721-18.494-46.721-50.614,0-27.253,1.946-55.481,1.946-82.734,0-105.122-9.734-292.978-72.028-378.633-31.147-43.801-62.294-55.481-112.907-61.321-30.173-3.894-51.588-9.734-51.588-44.774,0-29.2,23.36-43.801,49.641-43.801,19.467,0,38.934,3.894,57.428,9.734,62.294,17.52,113.881,55.481,146.976,111.935,68.134,116.802,74.948,324.125,74.948,458.447,0,43.801-.974,81.762-47.694,81.762Z"/>
</svg>