<?xml version="1.0" encoding="UTF-8"?>
<svg id="_レイヤー_1" data-name="レイヤー_1" xmlns="http://www.w3.org/2000/svg" version="1.1" viewBox="0 0 1024 1024">
  <!-- Generator: Adobe Illustrator 30.4.0, SVG Export Plug-In . SVG Version: 2.1.3 Build 159)  -->
  <path d="M233.281,173.693c0,13.455-2.883,33.638-3.844,47.094-7.689,73.044-12.494,147.048-12.494,218.17,0,76.888,8.65,226.819,48.055,292.174,11.533,19.221,33.638,33.638,56.705,33.638,64.394,0,92.265-87.46,111.487-148.009,8.65-27.872,22.105-40.366,51.899-40.366,34.6,0,67.277,20.183,67.277,57.666,0,46.133-30.755,106.682-52.861,146.088-40.366,72.082-97.071,128.787-184.531,128.787-94.188,0-148.009-71.121-178.765-151.854-37.483-94.187-44.21-232.586-44.21-334.462,0-44.211,5.766-229.703,14.417-263.341,8.65-32.678,28.833-44.21,61.51-44.21,40.366,0,65.354,15.378,65.354,58.627ZM863.763,840.696c-49.977,0-67.278-24.027-67.278-72.083,0-21.144.961-43.25.961-64.394,0-93.226-6.728-270.069-56.704-348.878-28.833-46.133-55.744-55.744-107.644-62.472-34.599-3.845-58.626-13.456-58.626-60.549,0-42.289,26.91-64.394,67.277-64.394,85.538,0,171.075,49.017,214.325,122.06,67.277,109.565,75.926,330.617,75.926,458.444,0,51.899-4.805,92.265-68.237,92.265Z"/>
</svg>