<?xml version="1.0" encoding="UTF-8"?>
<svg id="_レイヤー_1" data-name="レイヤー_1" xmlns="http://www.w3.org/2000/svg" version="1.1" viewBox="0 0 1024 1024">
  <!-- Generator: Adobe Illustrator 30.4.0, SVG Export Plug-In . SVG Version: 2.1.3 Build 159)  -->
  <path d="M557.887,583.639c52.441,0,79.598,42.141,79.598,89.9,0,22.474-6.555,53.378-6.555,73.043,0,61.807,28.094,70.235,102.074,70.235,47.759,0,109.566-6.555,137.659-6.555,38.396,0,57.124,17.793,57.124,57.124,0,62.742-52.441,64.616-159.197,64.616h-27.156c-97.392,0-222.877-1.874-222.877-131.104,0-25.284,3.746-49.632,3.746-74.916,0-29.967-12.174-50.568-44.013-50.568-55.251,0-131.104,79.599-177.927,128.294-23.411,24.348-81.471,86.155-104.883,103.01-10.301,7.492-21.538,10.301-34.649,10.301-34.648,0-64.615-33.713-64.615-65.552,0-22.475,10.301-34.649,26.22-49.633,17.793-16.856,177.926-151.705,214.448-182.609,65.552-56.187,132.976-108.629,202.274-161.07,13.11-10.301,40.268-33.713,52.442-44.95-8.429-.937-19.666,0-35.585,1.872-60.87,7.492-273.446,21.539-336.188,21.539-39.331,0-60.869-16.856-60.869-58.061,0-52.441,33.712-57.124,74.916-57.124h65.552c105.819,0,221.94-7.491,328.696-15.919,25.284-1.874,60.869-5.619,86.154-5.619,42.139,0,75.852,12.174,75.852,60.869,0,40.268-29.967,58.997-67.424,83.344-70.235,44.95-128.295,91.773-192.91,144.214,6.555-1.872,19.666-4.682,28.094-4.682ZM318.154,92c17.793,0,50.568,7.492,68.361,12.174,76.789,16.856,166.688,23.411,245.351,28.093,27.157,1.873,58.061,1.873,84.281,4.682,30.903,2.809,47.759,19.666,47.759,50.568,0,56.188-43.077,58.06-70.235,58.06-95.517,0-291.237-18.729-383.01-41.204-29.03-6.555-48.695-20.602-48.695-52.441,0-36.522,18.729-59.933,56.188-59.933Z"/>
</svg>