<?xml version="1.0" encoding="UTF-8"?>
<svg id="_レイヤー_1" data-name="レイヤー_1" xmlns="http://www.w3.org/2000/svg" version="1.1" viewBox="0 0 1024 1024">
  <!-- Generator: Adobe Illustrator 30.4.0, SVG Export Plug-In . SVG Version: 2.1.3 Build 159)  -->
  <path d="M489.006,410.168c16.894-1.877,43.173-5.631,80.716-5.631,52.558,0,183.955,8.447,262.793,76.023,57.251,47.866,78.838,120.134,78.838,184.893,0,161.43-119.195,266.547-326.615,266.547-30.034,0-90.1,0-90.1-72.268,0-61.005,51.621-61.005,81.654-61.005,40.357,0,176.447,0,176.447-131.398,0-116.38-103.241-133.273-190.526-133.273-35.665,0-50.681,1.877-73.207,5.631v145.474c0,82.593,0,243.084-182.078,243.084-137.966,0-211.173-100.424-211.173-207.418,0-184.895,184.894-255.285,250.592-279.687v-92.916c-21.587.938-112.626,2.816-131.397,2.816h-36.603c-23.464,0-76.023,0-76.023-68.514,0-49.743,29.095-61.944,53.498-65.698,7.508-.939,147.352-3.754,190.525-4.693v-44.112c0-32.849,1.877-76.022,71.329-76.022s71.33,45.05,71.33,75.084v38.48c45.051-1.877,61.005-2.816,73.207-2.816,20.648,0,72.268,0,72.268,68.514,0,48.805-29.095,60.067-37.542,62.883-15.016,3.754-24.402,4.693-107.932,8.448v67.575ZM348.224,577.229c-32.85,15.017-114.503,53.498-114.503,135.151,0,42.235,25.341,77.899,62.883,77.899,40.357,0,51.62-43.173,51.62-110.749v-102.302ZM702.057,125.787c45.988,0,123.887,66.637,167.061,112.626,37.541,39.419,59.128,69.453,59.128,100.425,0,44.111-41.296,74.145-78.838,74.145-30.971,0-44.111-18.771-64.759-46.927-46.927-64.76-67.576-80.716-128.581-126.704-26.279-19.71-26.279-45.989-26.279-48.805,0-19.71,16.893-40.357,19.709-42.235,5.631-4.692,26.279-22.525,52.559-22.525Z"/>
</svg>