<?xml version="1.0" encoding="UTF-8"?>
<svg id="_レイヤー_1" data-name="レイヤー_1" xmlns="http://www.w3.org/2000/svg" version="1.1" viewBox="0 0 1024 1024">
  <!-- Generator: Adobe Illustrator 30.4.0, SVG Export Plug-In . SVG Version: 2.1.3 Build 159)  -->
  <path d="M474.12,417.772c32.199-4.736,57.767-6.629,90.914-6.629,174.25,0,342.818,56.82,342.818,260.428,0,117.429-64.396,198.872-173.302,235.806-53.033,17.993-107.96,24.622-163.833,24.622-40.722,0-87.125-1.894-87.125-61.556,0-52.085,44.51-52.085,67.238-52.085h23.675c98.49,0,200.767-31.252,200.767-148.681,0-128.794-108.906-150.576-213.078-150.576-32.198,0-56.82,1.895-88.072,7.577v147.734c0,65.345-.947,132.582-36.934,189.403-32.199,49.244-82.39,65.343-138.264,65.343-117.429,0-203.607-88.072-203.607-204.554,0-156.258,128.794-232.966,258.534-280.316v-107.013c-59.661,1.895-119.323,1.895-178.985,1.895-29.357,0-72.92-.947-72.92-57.768,0-47.351,29.358-56.821,70.079-56.821h50.192c43.562,0,88.072-.947,131.635-1.894v-67.238c0-42.616,15.152-63.45,60.609-63.45,44.51,0,59.662,20.834,59.662,63.45v61.556c28.41-.947,71.973-3.788,98.489-3.788,39.775,0,61.556,16.099,61.556,56.82,0,22.728-8.524,46.403-32.199,53.033-19.887,5.682-102.277,7.577-127.846,8.523v86.179ZM211.797,716.081c0,45.457,30.304,96.595,81.443,96.595,62.503,0,62.503-97.541,62.503-142.052v-111.747c-68.185,27.463-143.946,73.867-143.946,157.204ZM695.72,130.827c61.556,0,232.965,149.628,232.965,214.025,0,35.039-34.092,61.556-67.237,61.556-26.517,0-38.828-17.047-63.45-52.086-28.411-39.775-73.867-86.179-114.589-110.801-20.834-12.311-47.35-31.252-47.35-58.715,0-29.357,31.252-53.98,59.661-53.98Z"/>
</svg>