<?xml version="1.0" encoding="UTF-8"?>
<svg id="_レイヤー_1" data-name="レイヤー_1" xmlns="http://www.w3.org/2000/svg" version="1.1" viewBox="0 0 1024 1024">
  <!-- Generator: Adobe Illustrator 30.4.0, SVG Export Plug-In . SVG Version: 2.1.3 Build 159)  -->
  <path d="M848.949,430.848c32.271,42.711,47.457,95.864,47.457,149.017,0,75.931-23.729,155.66-74.983,213.558-43.661,49.356-108.204,79.729-170.848,99.661-89.22,27.525-183.186,38.916-276.203,38.916-33.22,0-62.644-4.746-62.644-45.559,0-30.373,18.983-37.967,45.559-37.967,91.119-1.898,181.288-8.542,267.66-37.966,106.306-35.119,181.289-108.204,181.289-225.899,0-136.678-101.56-180.339-222.102-180.339-76.882,0-154.712,19.933-226.847,46.509-50.305,18.983-97.762,43.661-145.22,70.237-13.288,6.644-26.577,13.287-41.763,13.287-25.627,0-42.712-23.729-42.712-47.457,0-13.289,5.695-25.626,17.085-33.22,19.932-14.237,44.61-23.729,68.339-33.22,72.136-30.373,163.254-61.695,239.187-77.83,45.559-10.441,93.017-15.186,139.526-15.186,96.813,0,195.525,22.779,257.22,103.458ZM295.594,92c12.339,0,22.78,1.898,48.407,8.543,73.085,17.084,148.067,27.525,223.051,35.119,43.66,3.796,88.27,8.542,131.931,10.441,12.339.949,24.678.949,37.017,2.847,27.525,2.847,47.457,12.339,47.457,43.661,0,33.22-25.626,40.813-54.101,40.813-52.204,0-135.728-11.39-189.83-17.085-79.728-9.491-161.355-18.983-240.135-38.915-21.83-5.695-41.762-15.186-41.762-40.813,0-22.78,13.288-44.61,37.966-44.61Z"/>
</svg>