<svg xmlns="http://www.w3.org/2000/svg" viewBox="0 0 100 100">
  <defs>
    <linearGradient id="shieldGrad" x1="0" y1="0" x2="0" y2="1">
      <stop offset="0" stop-color="#93c5fd"/>
      <stop offset="0.55" stop-color="#3b82f6"/>
      <stop offset="1" stop-color="#1d4ed8"/>
    </linearGradient>
    <linearGradient id="pencilWood" x1="0" y1="0" x2="1" y2="0">
      <stop offset="0" stop-color="#f59e0b"/>
      <stop offset="0.5" stop-color="#fbbf24"/>
      <stop offset="1" stop-color="#d97706"/>
    </linearGradient>
    <filter id="softShadow" x="-20%" y="-20%" width="140%" height="140%">
      <feDropShadow dx="1.2" dy="1.6" stdDeviation="1.4" flood-color="#000" flood-opacity="0.35"/>
    </filter>
  </defs>

  <g filter="url(#softShadow)">
    <path d="M50 8
             Q82 12 84 22
             L84 50
             Q84 82 50 94
             Q16 82 16 50
             L16 22
             Q18 12 50 8 Z"
          fill="url(#shieldGrad)" stroke="#0f172a" stroke-width="2.5"/>
    <path d="M50 13
             Q78 17 79 24
             L79 50
             Q79 78 50 88
             Q21 78 21 50
             L21 24
             Q22 17 50 13 Z"
          fill="none" stroke="#dbeafe" stroke-width="1.2" opacity="0.7"/>
    <path d="M50 18 L58 30 L52 30 L52 44 L48 44 L48 30 L42 30 Z"
          fill="#fde68a" stroke="#78350f" stroke-width="0.8" opacity="0.85"/>
  </g>

  <g transform="rotate(-38 50 52)" filter="url(#softShadow)">
    <rect x="45" y="8"  width="10" height="9"  rx="1.2" fill="#f472b6" stroke="#334155" stroke-width="0.9"/>
    <rect x="44.5" y="16" width="11" height="5" fill="#cbd5e1" stroke="#334155" stroke-width="0.9"/>
    <path d="M45 20 L55 20 L55 21.5 L45 21.5 Z" fill="#94a3b8"/>
    <rect x="45" y="21" width="10" height="52" fill="url(#pencilWood)" stroke="#78350f" stroke-width="0.9"/>
    <line x1="47.5" y1="23" x2="47.5" y2="71" stroke="#78350f" stroke-width="0.4" opacity="0.45"/>
    <line x1="52.5" y1="23" x2="52.5" y2="71" stroke="#78350f" stroke-width="0.4" opacity="0.45"/>
    <polygon points="45,73 55,73 50,88" fill="#fde68a" stroke="#78350f" stroke-width="0.9"/>
    <polygon points="47.5,82 52.5,82 50,92" fill="#1f2937" stroke="#0f172a" stroke-width="0.5"/>
    <polygon points="48.4,83 49.6,83 49,85" fill="#f8fafc" opacity="0.65"/>
  </g>
</svg>
