<?xml version="1.0" encoding="UTF-8"?>
<!--
  Placeholder antique frame: animal-banner
  Aspect ratio 4:1 (typical wide banner over animal icons row)
  Replace with assets/zukan/frames/animal-banner.png once finalized.
-->
<svg xmlns="http://www.w3.org/2000/svg" viewBox="0 0 800 200" fill="none" preserveAspectRatio="none">
  <g stroke="#b07a3a" stroke-linecap="round" stroke-linejoin="round" fill="none">
    <!-- outer rect -->
    <rect x="8" y="8" width="784" height="184" rx="6" ry="6" stroke-width="4"/>
    <!-- inner accent rect -->
    <rect x="22" y="22" width="756" height="156" rx="3" ry="3" stroke="#b07a3a" stroke-width="1.5" stroke-dasharray="3 4" opacity="0.55"/>
    <!-- corner ornaments (asterisk-like 4 short strokes) -->
    <g stroke-width="2.5">
      <!-- TL -->
      <g transform="translate(34,34)">
        <line x1="-10" y1="0" x2="10" y2="0"/>
        <line x1="0" y1="-10" x2="0" y2="10"/>
        <line x1="-7" y1="-7" x2="7" y2="7"/>
        <line x1="-7" y1="7" x2="7" y2="-7"/>
      </g>
      <!-- TR -->
      <g transform="translate(766,34)">
        <line x1="-10" y1="0" x2="10" y2="0"/>
        <line x1="0" y1="-10" x2="0" y2="10"/>
        <line x1="-7" y1="-7" x2="7" y2="7"/>
        <line x1="-7" y1="7" x2="7" y2="-7"/>
      </g>
      <!-- BL -->
      <g transform="translate(34,166)">
        <line x1="-10" y1="0" x2="10" y2="0"/>
        <line x1="0" y1="-10" x2="0" y2="10"/>
        <line x1="-7" y1="-7" x2="7" y2="7"/>
        <line x1="-7" y1="7" x2="7" y2="-7"/>
      </g>
      <!-- BR -->
      <g transform="translate(766,166)">
        <line x1="-10" y1="0" x2="10" y2="0"/>
        <line x1="0" y1="-10" x2="0" y2="10"/>
        <line x1="-7" y1="-7" x2="7" y2="7"/>
        <line x1="-7" y1="7" x2="7" y2="-7"/>
      </g>
    </g>
    <!-- center top tiny diamond ornament -->
    <g transform="translate(400,18)" stroke-width="2">
      <path d="M -8 0 L 0 -8 L 8 0 L 0 8 Z"/>
    </g>
    <g transform="translate(400,182)" stroke-width="2">
      <path d="M -8 0 L 0 -8 L 8 0 L 0 8 Z"/>
    </g>
  </g>
</svg>
