<?xml version="1.0" encoding="UTF-8"?>
<!--
  Placeholder antique frame: rabbit-portrait
  Aspect ratio ~16:21 (320x420; right-page large character portrait)
  Replace with assets/zukan/frames/rabbit-portrait.png once finalized.
-->
<svg xmlns="http://www.w3.org/2000/svg" viewBox="0 0 320 420" fill="none" preserveAspectRatio="none">
  <g stroke="#b07a3a" stroke-linecap="round" stroke-linejoin="round" fill="none">
    <!-- outer rect with rounded corners -->
    <rect x="8" y="8" width="304" height="404" rx="14" ry="14" stroke-width="4"/>
    <!-- inner dashed accent -->
    <rect x="22" y="22" width="276" height="376" rx="8" ry="8" stroke-width="1.5" stroke-dasharray="3 5" opacity="0.55"/>
    <!-- corner ornaments -->
    <g stroke-width="2.5">
      <g transform="translate(38,38)">
        <line x1="-11" y1="0" x2="11" y2="0"/>
        <line x1="0" y1="-11" x2="0" y2="11"/>
        <line x1="-8" y1="-8" x2="8" y2="8"/>
        <line x1="-8" y1="8" x2="8" y2="-8"/>
      </g>
      <g transform="translate(282,38)">
        <line x1="-11" y1="0" x2="11" y2="0"/>
        <line x1="0" y1="-11" x2="0" y2="11"/>
        <line x1="-8" y1="-8" x2="8" y2="8"/>
        <line x1="-8" y1="8" x2="8" y2="-8"/>
      </g>
      <g transform="translate(38,382)">
        <line x1="-11" y1="0" x2="11" y2="0"/>
        <line x1="0" y1="-11" x2="0" y2="11"/>
        <line x1="-8" y1="-8" x2="8" y2="8"/>
        <line x1="-8" y1="8" x2="8" y2="-8"/>
      </g>
      <g transform="translate(282,382)">
        <line x1="-11" y1="0" x2="11" y2="0"/>
        <line x1="0" y1="-11" x2="0" y2="11"/>
        <line x1="-8" y1="-8" x2="8" y2="8"/>
        <line x1="-8" y1="8" x2="8" y2="-8"/>
      </g>
    </g>
    <!-- top + bottom center small diamond -->
    <g stroke-width="2">
      <g transform="translate(160,16)">
        <path d="M -10 0 L 0 -10 L 10 0 L 0 10 Z"/>
      </g>
      <g transform="translate(160,404)">
        <path d="M -10 0 L 0 -10 L 10 0 L 0 10 Z"/>
      </g>
    </g>
    <!-- vertical side accent ticks -->
    <g stroke-width="1" opacity="0.5">
      <line x1="8" y1="160" x2="20" y2="160"/>
      <line x1="8" y1="260" x2="20" y2="260"/>
      <line x1="300" y1="160" x2="312" y2="160"/>
      <line x1="300" y1="260" x2="312" y2="260"/>
    </g>
  </g>
</svg>
